<svg xmlns="http://www.w3.org/2000/svg" xmlns:xlink="http://www.w3.org/1999/xlink" viewBox="0 0 551.8 311.4"><defs><linearGradient id="b" x1="388.3" x2="337.7" y1="316.3" y2="129.5" gradientTransform="matrix(1 0 0 -1 0 312)" gradientUnits="userSpaceOnUse"><stop offset="0" stop-color="#55617d"/><stop offset="1" stop-color="#363e4f"/></linearGradient><linearGradient id="a" x1="413.7" x2="266.7" y1="199.1" y2="181.9" gradientTransform="matrix(1 0 0 -1 0 312)" gradientUnits="userSpaceOnUse"><stop offset="0" stop-color="#5b6a87"/><stop offset="1" stop-color="#2c3340"/></linearGradient><linearGradient id="g" x1="493.9" x2="118.3" y1="277.8" y2="261.4" gradientTransform="matrix(1 0 0 -1 0 312)" gradientUnits="userSpaceOnUse"><stop offset="0" stop-color="#657394"/><stop offset="1" stop-color="#363e4f"/></linearGradient><linearGradient id="h" x1="452.8" x2="231.3" y1="305" y2="215.7" xlink:href="#a"/><linearGradient id="i" x1="495.9" x2="431.4" y1="186.9" y2="186.9" xlink:href="#b"/><linearGradient id="j" x1="274.9" x2="225.3" y1="209.9" y2="209.9" xlink:href="#b"/><linearGradient id="c" x1="288.8" x2="249.6" y1="198.5" y2="155.9" gradientTransform="matrix(1 0 0 -1 0 312)" gradientUnits="userSpaceOnUse"><stop offset="0" stop-color="#8ea3cf"/><stop offset="1" stop-color="#5f7299"/></linearGradient><linearGradient id="k" x1="250" x2="182.2" y1="124.9" y2="124.9" xlink:href="#c"/><linearGradient id="l" x1="274.9" x2="176.1" y1="213.7" y2="213.7" gradientTransform="matrix(1 0 0 -1 0 312)" gradientUnits="userSpaceOnUse"><stop offset="0" stop-color="#8ea3cf"/><stop offset="1" stop-color="#798bb0"/></linearGradient><linearGradient id="m" x1="115" x2="178.5" y1="180.3" y2="132.8" xlink:href="#c"/><linearGradient id="n" x1="306" x2="182.3" y1="124.9" y2="124.9" gradientTransform="matrix(1 0 0 -1 0 312)" gradientUnits="userSpaceOnUse"><stop offset="0" stop-color="#d4e2ff"/><stop offset="1" stop-color="#b9caed"/></linearGradient><linearGradient id="e" x1="306" x2="182" y1="124.9" y2="124.9" gradientTransform="matrix(1 0 0 -1 0 312)" gradientUnits="userSpaceOnUse"><stop offset="0" stop-color="#edf7ff"/><stop offset="1" stop-color="#d0e4f5"/></linearGradient><linearGradient id="d" x1="317.5" x2="283.4" y1="118.5" y2="48.8" gradientTransform="matrix(1 0 0 -1 0 312)" gradientUnits="userSpaceOnUse"><stop offset="0" stop-color="#c3d5fa"/><stop offset="1" stop-color="#98b0e0"/></linearGradient><linearGradient id="o" x1="278.9" x2="182.2" y1="80" y2="80" xlink:href="#d"/><linearGradient id="p" x1="278.6" x2="182" y1="80" y2="80" xlink:href="#e"/><linearGradient id="f" x1="431.8" x2="386.1" y1="136.7" y2="176.8" gradientTransform="matrix(1 0 0 -1 0 312)" gradientUnits="userSpaceOnUse"><stop offset="0" stop-color="#ff8808"/><stop offset="1" stop-color="#ffdb0d"/></linearGradient><linearGradient id="q" x1="281.1" x2="507.3" y1="58.2" y2="81.8" xlink:href="#f"/><linearGradient id="r" x1="509.9" x2="279" y1="116.9" y2="116.9" gradientTransform="matrix(1 0 0 -1 0 312)" gradientUnits="userSpaceOnUse"><stop offset="0" stop-color="#ffa408"/><stop offset="1" stop-color="#ffdb0d"/></linearGradient></defs><path fill="url(#b)" d="M275 59v114.4c37.8-21.9 99-21.9 136.7 0a66 66 0 0 1 19.9 17V76a72 72 0 0 0-19.9-17C374 37.4 312.8 37 275 59z" transform="translate(-.5 -.5)"/><path fill="url(#a)" d="M275 59v114.4c37.8-21.9 99-21.9 136.7 0a66 66 0 0 1 19.9 17V76a72 72 0 0 0-19.9-17C374 37.4 312.8 37 275 59z" transform="translate(-.5 -.5)"/><path fill="url(#g)" d="M225.4 30.3L275 59c37.8-21.8 99-21.8 136.7 0A66 66 0 0 1 431.6 76L496 59.7a112 112 0 0 0-34.6-29.4c-65.1-37.7-170.5-37.7-236 0z" transform="translate(-.5 -.5)"/><path fill="url(#h)" d="M225.4 30.3L275 59c37.8-21.8 99-21.8 136.7 0A66 66 0 0 1 431.6 76L496 59.7a112 112 0 0 0-34.6-29.4c-65.1-37.7-170.5-37.7-236 0z" transform="translate(-.5 -.5)"/><path fill="url(#i)" d="M431.2 76v114.5l64.8-16.3V59.7z" transform="translate(-.5 -.5)"/><path fill="url(#j)" d="M225.4 30.3v114.5l49.6 29V58.9z" transform="translate(-.5 -.5)"/><path fill="#fff" d="M495.5 61.2l-64.4 16.3a72 72 0 0 0-19.8-17c-37.8-22-98.6-22-136.8 0l-49.6-28.7v-2l49.6 28.6c37.8-21.8 99-21.8 136.7 0a66 66 0 0 1 19.9 17.1l64.4-16.3z" opacity=".7" style="isolation:isolate"/><path fill="url(#c)" d="M246.4 119.7v93.8c0-14.3 9.6-28.6 28.6-39.7V80c-19 10.7-28.6 25-28.6 39.7z" transform="translate(-.5 -.5)"/><path fill="#fff" d="M274.5 79.1v1.2c-19 11.1-28.6 25.4-28.6 39.7v-.8c0-14.7 9.6-29 28.6-40.1z" opacity=".3" style="isolation:isolate"/><path fill="url(#k)" d="M182 145.6v94.2l68-11.2v-94.2z" transform="translate(-.5 -.5)"/><path fill="url(#l)" d="M225.4 51c-44.5 25.8-58.9 62-43.4 94.6l68-11.1c-9.1-18.7-.7-39.8 25-54.9z" transform="translate(-.5 -.5)"/><path fill="url(#m)" d="M176 119.7v93.8a59.9 59.9 0 0 0 6 25.9v-93.8a59.9 59.9 0 0 1-6-25.9z" transform="translate(-.5 -.5)"/><path fill="#fff" d="M175.6 120.8v-1.6a59.9 59.9 0 0 0 6 25.9l68-11.2v1.6l-68 11.1a59.9 59.9 0 0 1-6-25.8z" opacity=".3" style="isolation:isolate"/><path fill="url(#n)" d="M182 161c7.5 15.6 21.5 29.9 42.5 42.2a207.2 207.2 0 0 0 54.5 21l27-37.7a110.2 110.2 0 0 1-31.4-12.3 62.6 62.6 0 0 1-24.7-24.3z" transform="translate(-.5 -.5)"/><path fill="url(#e)" d="M182 161c7.5 15.6 21.5 29.9 42.5 42.2a207.2 207.2 0 0 0 54.5 21l27-37.7a110.2 110.2 0 0 1-31.4-12.3 62.6 62.6 0 0 1-24.7-24.3z" transform="translate(-.5 -.5)"/><path fill="url(#d)" d="M279 224.3v78.3l27-37.8v-78.3z" transform="translate(-.5 -.5)"/><path fill="url(#o)" d="M182 161v78.8c7.5 15.5 21.9 29.8 42.5 42a209.5 209.5 0 0 0 54 21.1v-78.6a212.5 212.5 0 0 1-54.4-21C204 190.8 189.6 176.5 182 161z" transform="translate(-.5 -.5)"/><path fill="url(#p)" d="M182 161v78.8c7.5 15.5 21.9 29.8 42.5 42a209.5 209.5 0 0 0 54 21.1v-78.6a212.5 212.5 0 0 1-54.4-21C204 190.8 189.6 176.5 182 161z" transform="translate(-.5 -.5)"/><path fill="#fff" d="M224 202.7a207.2 207.2 0 0 0 54.5 21l27-37.7v2.4l-27 37.7a212.6 212.6 0 0 1-54.4-21c-20.7-12-35-26.7-42.6-42.2v-2.3c7.6 15.5 21.9 29.8 42.6 42.1z" opacity=".7" style="isolation:isolate"/><path fill="url(#f)" d="M439.6 213.1v-46.9c0-7.5-2.8-15-8-22.2v46.9a37.2 37.2 0 0 1 8 22.2z" transform="translate(-.5 -.5)"/><path fill="#fff" d="M439 167.7c0-7.5-2.7-15-7.9-22.2V143a35.6 35.6 0 0 1 8 22.3z" opacity=".7" style="isolation:isolate"/><path fill="url(#q)" d="M510 212.7v-46.9c0 25-16.4 49.7-49.4 68.8-49.2 28.6-121.2 35.4-181.6 21v47c60.4 14.3 132.3 7.5 181.6-21.1 33-18.7 49.7-43.7 49.3-68.8z" transform="translate(-.5 -.5)"/><path fill="#fff" d="M509.4 167.7c0 25-16.3 49.7-49.3 68.8-49.2 28.6-121.2 35.4-181.6 21v-2.4c60.4 14.3 132.3 7.6 181.6-21 33-19.1 49.3-43.8 49.3-68.8z" opacity=".7" style="isolation:isolate"/><path fill="url(#r)" d="M431.2 143.6c15.5 20.7 8.8 45.3-20.2 62-28.7 16.3-70.4 20.7-105 12.3l-27 37.8c60.5 14.3 132.4 7.5 181.7-21 50.5-29 62-72 35.3-107.4z" transform="translate(-.5 -.5)"/><path fill="#fff" d="M141.7 287.2l-7.8-4.6v-8.8c0-4.2-3-9.1-6.5-11.4-3.6-2-6.6-.3-6.6 4v8.7l-7.8-4.6c-3.6-2-6.5-.3-6.5 4s3 9 6.5 11.3l7.8 4.6v8.8c0 4.2 3 9 6.5 11.4 3.6 2 6.6.3 6.6-4V298l7.8 4.5c3.6 2 6.5.3 6.5-3.6 0-4.5-3-9.7-6.5-11.6z"/><path fill="none" stroke="#fff" stroke-miterlimit="10" stroke-width="3" d="M509.5 98a11.4 11.4 0 1 0 11.4-11.4A11.3 11.3 0 0 0 509.5 98zM122.5 25a11.4 11.4 0 1 0 22.8 0 11.5 11.5 0 0 0-11.4-11.4A11.3 11.3 0 0 0 122.5 25z"/><path fill="none" stroke="#fff" stroke-linecap="round" stroke-miterlimit="10" stroke-width="5" d="M2.5 217.5c6.8 0 6.8 6 13.6 6s6.8-6 13.6-6 6.8 6 13.7 6 6.8-6 13.6-6 6.8 6 13.6 6 6.8-6 13.6-6"/><path fill="none" stroke="#fff" stroke-linecap="round" stroke-miterlimit="10" stroke-width="3" d="M468.5 1.5c6.8 0 6.8 6 13.6 6s6.8-6 13.6-6 6.9 6 13.7 6 6.8-6 13.6-6 6.8 6 13.6 6 6.8-6 13.6-6"/></svg>