<svg xmlns="http://www.w3.org/2000/svg" viewBox="0 0 332 51.65"><path fill="#ffde00" d="M13.38 4.69h149.89l-14.08 19.53H0L13.38 4.69zM13.38 46.08h149.89l-14.08-19.54H0l13.38 19.54z"/><path fill="#002678" d="M48.83 11.48H38.79l-8.61 12.57V0h-8.61v40.17h8.61V27.49l9.18 12.68h9.76L38.39 25.83l10.44-14.35z"/><path fill="#002678" d="M59.13 19.86c0-1 .92-1.61 2.41-1.61a4.17 4.17 0 0 1 3.85 2.55l7.35-4a12.56 12.56 0 0 0-11.19-6.14c-6 0-11.25 3.16-11.25 9.41 0 9.93 14.12 8.26 14.12 11.42 0 1.15-1 1.78-3.1 1.78a4.71 4.71 0 0 1-4.88-3.39L49 34.15c2.24 4.65 6.6 6.83 12.34 6.83 6.2 0 11.94-2.81 11.94-9.41 0-10.62-14.12-8.44-14.12-11.71M85.21 22.8c.8-2.93 3-4.53 6.26-4.53a5.91 5.91 0 0 1 6.08 4.53zm6.31-12.17c-9.07 0-15.27 6.6-15.27 15.15s6.08 15.15 15.9 15.15c5.45 0 9.7-2 12.51-5.91l-6.89-4a7.5 7.5 0 0 1-5.51 2.18c-3.16 0-5.8-1-6.89-4h20.37a16.64 16.64 0 0 0 .36-3.4c0-8.67-6.2-15.15-14.58-15.15M126 32.8c-4 0-6.83-2.7-6.83-7s2.83-7 6.83-7 6.83 2.7 6.83 7-2.83 7-6.83 7m1.72-22.15c-3.85 0-6.66 1.32-8.55 3.5v-2.7h-8.61v40.2h8.61V37.48c1.89 2.18 4.71 3.5 8.55 3.5 7.52 0 13.72-6.6 13.72-15.15s-6.2-15.15-13.72-15.15M180.34 11.61h-2.84l-4.05 4.28v-4.28h-2.22V21.9h2.22v-3.32l1.32-1.31 3.12 4.63h2.83l-4.41-6.23 4.03-4.06zM183.4 19.49v-5.04h-1.96v7.45h2.32l2.66-5.04v5.04h1.96v-7.45h-2.32l-2.66 5.04zM190.03 14.44h2.05v7.45h-2.05zM188.57 11.61h1.92v1.68h-1.92zM191.59 11.61h1.92v1.68h-1.92zM197.21 20.57h-1.52v-2h1.43c.74 0 1.44.13 1.44 1s-.65 1-1.36 1m-1.52-4.82H197c.64 0 1.21.12 1.21.84s-.61.85-1.21.85h-1.36zm3.64 2.11a1.63 1.63 0 0 0 1-1.53c0-1.33-1.07-1.88-2.38-1.88h-4.29v7.45h4.49a2.25 2.25 0 0 0 2.53-2.22 1.77 1.77 0 0 0-1.36-1.82M205.52 20.53c-1.1 0-1.73-.85-1.73-2.34s.66-2.43 1.78-2.43a1.41 1.41 0 0 1 1.43 1.29h2c-.17-1.73-1.5-2.82-3.5-2.82a3.69 3.69 0 0 0-3.83 4 3.6 3.6 0 0 0 3.8 3.86 3.33 3.33 0 0 0 3.57-3.06h-2a1.54 1.54 0 0 1-1.59 1.5M213.65 20.49h-1.4v-2.1h1.39c.71 0 1.26.33 1.26 1.05s-.49 1-1.24 1m.58-3.48h-2v-2.51h-2v7.45h3.91c1.62 0 2.82-.81 2.82-2.46a2.44 2.44 0 0 0-2.73-2.44M225.23 14.45h-2.41l-2.73 2.94v-2.94h-2.01v7.45h2.01v-2.29l.91-.92 2.15 3.21h2.49l-3.3-4.57 2.89-2.88zM231 19.11a1.62 1.62 0 0 1-1.81 1.69c-.71 0-1.13-.38-1.13-1 0-.91.79-1 1.5-1.11a3.89 3.89 0 0 0 1.44-.39zm2-2.46c0-2.08-1.75-2.43-3.25-2.43-2.15 0-3.34.85-3.45 2.51h1.92c.15-.85.54-1.14 1.47-1.14s1.34.32 1.34 1-.49.72-1.82.9-3.25.42-3.25 2.37c0 1.4 1 2.25 2.66 2.25a3.38 3.38 0 0 0 2.41-.94 2.22 2.22 0 0 0 .15.72h2.08a5 5 0 0 1-.26-2zM250.16 19.98h-3.42v-8.37h-2.26v8.37h-3.42v-8.37h-2.25V21.9h13.6V11.61h-2.25v8.37zM261.35 14.45h-2.41l-2.74 2.94v-2.94h-2v7.45h2v-2.29l.92-.92 2.15 3.21h2.48l-3.29-4.57 2.89-2.88zM265.81 20.59c-1.14 0-1.81-.88-1.81-2.41s.68-2.38 1.78-2.38 1.82.88 1.82 2.37-.66 2.43-1.79 2.43m0-6.36a3.69 3.69 0 0 0-3.81 3.93 3.85 3.85 0 1 0 7.7 0 3.66 3.66 0 0 0-3.81-3.94M271.57 18.88c0 1.07-.33 1.55-.92 1.55a3 3 0 0 1-.58-.07v1.63a4.38 4.38 0 0 0 1.11.15c2.25 0 2.34-1.94 2.4-3.48l.09-2.63h2v5.87h2v-7.45h-6zM284 19.11a1.62 1.62 0 0 1-1.83 1.69c-.71 0-1.13-.38-1.13-1 0-.91.8-1 1.5-1.11a3.89 3.89 0 0 0 1.44-.39zm2 .77v-3.22c0-2.08-1.75-2.43-3.25-2.43-2.15 0-3.34.85-3.45 2.51h1.92c.14-.85.53-1.14 1.47-1.14s1.34.32 1.34 1-.49.72-1.82.9-3.25.42-3.25 2.37c0 1.4 1 2.25 2.66 2.25a3.38 3.38 0 0 0 2.41-.94 2.22 2.22 0 0 0 .15.72h2.08a5 5 0 0 1-.26-2M173.44 34.65h5.03v-1.77h-5.03v-2.24h5.47v-1.85h-7.71v10.28h7.81v-1.89h-5.57v-2.53zM185.28 34.32h-2.87v-2.7h-2.04v7.45h2.04v-3.13h2.87v3.13h2.04v-7.45h-2.04v2.7zM190.68 34.57a1.67 1.67 0 0 1 1.66-1.68 1.62 1.62 0 0 1 1.6 1.68zm1.66-3.16a3.74 3.74 0 0 0-3.74 4 3.64 3.64 0 0 0 3.81 3.9 3.44 3.44 0 0 0 3.5-2.53h-2a1.49 1.49 0 0 1-1.48 1.02c-1.1 0-1.72-.69-1.75-2H196v-.2c0-2.61-1.43-4.26-3.68-4.26M200.95 37.66c-1.13 0-1.79-.85-1.79-2.3s.66-2.3 1.78-2.3 1.78.87 1.78 2.33-.66 2.27-1.76 2.27m.49-6.24a2.71 2.71 0 0 0-2.31 1.13v-.93h-1.94v10.1h2v-3.57a2.69 2.69 0 0 0 2.3 1.11c1.95 0 3.24-1.53 3.24-3.87s-1.31-4-3.32-4M206.04 39.07h2.04v-5.88h3.6v-1.57h-5.64v7.45zM214 34.57a1.67 1.67 0 0 1 1.66-1.68 1.62 1.62 0 0 1 1.6 1.68zm1.66-3.16a3.74 3.74 0 0 0-3.74 4 3.64 3.64 0 0 0 3.81 3.9 3.44 3.44 0 0 0 3.5-2.53h-2a1.49 1.49 0 0 1-1.53 1.02c-1.1 0-1.72-.69-1.75-2h5.34v-.2c0-2.61-1.43-4.26-3.68-4.26M219.57 33.19h2.46v5.88h2.03v-5.88h2.46v-1.57h-6.95v1.57zM229.42 36.66v-5.04h-1.96v7.45h2.32l2.66-5.04v5.04h1.96v-7.45h-2.32l-2.66 5.04zM240.67 34.71a9 9 0 0 1-1.7.22c-.91 0-1.14-.38-1.14-1.46v-1.85h-2v2.27a2.31 2.31 0 0 0 2.5 2.59 10.77 10.77 0 0 0 2.38-.33v2.93h2v-7.46h-2zM249.22 34.32h-2.88v-2.7h-2.03v7.45h2.03v-3.13h2.88v3.13h2.03v-7.45h-2.03v2.7zM256.48 37.8c-1.14 0-1.81-.88-1.81-2.41s.68-2.38 1.78-2.38 1.82.88 1.82 2.37-.66 2.42-1.79 2.42m0-6.36a3.69 3.69 0 0 0-3.89 3.94 3.85 3.85 0 1 0 7.7 0 3.66 3.66 0 0 0-3.81-3.94M261.72 31.62h2.05v7.45h-2.05zM260.26 28.79h1.92v1.68h-1.92zM263.28 28.79h1.92v1.68h-1.92zM269.62 39.07h2.25v-8.36h4.21v8.36h2.25V28.79h-8.71v10.28zM283.74 37.8c-1.14 0-1.81-.88-1.81-2.41s.68-2.38 1.78-2.38 1.82.88 1.82 2.37-.66 2.42-1.79 2.42m0-6.36a3.69 3.69 0 0 0-3.89 3.94 3.85 3.85 0 1 0 7.7 0 3.66 3.66 0 0 0-3.81-3.94M289.5 36.06c0 1.07-.33 1.55-.92 1.55a3 3 0 0 1-.58-.07v1.63a4.38 4.38 0 0 0 1.11.15c2.25 0 2.34-1.94 2.4-3.48l.09-2.63h2v5.88h2v-7.47h-6zM297.29 28.79h2.05v1.73h-2.05zM297.29 31.62h2.05v7.45h-2.05zM300.32 33.19h2.45v5.88h2.04v-5.88h2.46v-1.57h-6.95v1.57zM310.17 36.66v-5.04h-1.97v7.45h2.33l2.66-5.04v5.04h1.96v-7.45h-2.33l-2.65 5.04zM323.94 31.62h-2.41l-2.73 2.95v-2.95h-2.01v7.45h2.01v-2.28l.91-.92 2.15 3.2h2.49l-3.29-4.56 2.88-2.89zM329.68 31.62l-2.66 5.04v-5.04h-1.97v7.45h2.33l2.66-5.04v5.04H332v-7.45h-2.32z"/></svg>