<svg xmlns="http://www.w3.org/2000/svg" viewBox="0 0 282.6 143.8"><path fill="#ffde00" d="M0 88.6v23.6h50.4v29.4h26.4v-29.4h13.6V89.8H76.8V0H47zM50.4 36v53.8h-28L50 36zm46.5 39.6a217.9 217.9 0 0 0 2 32q2.2 13 7.2 21.2a28.4 28.4 0 0 0 13.8 11.6q8.6 3.4 21.4 3.4 15.8 0 24.6-6a36.1 36.1 0 0 0 13.4-16.4 77.8 77.8 0 0 0 5.4-24.2q1-13.6 1-28.4a194.5 194.5 0 0 0-2.2-31.8q-2-13.2-7.2-21.4a28.5 28.5 0 0 0-13.6-11.8Q154.3 0 141.3 0q-15.8 0-24.8 6.4a37.7 37.7 0 0 0-13.2 16.8 75.6 75.6 0 0 0-5.4 24q-1 13.6-1 28.4zm28.8 6.2V66.4q0-13.6.6-22.8a76.8 76.8 0 0 1 2.4-14.6q1.8-5.6 4.8-7.8a12.1 12.1 0 0 1 7.8-2.4 14.6 14.6 0 0 1 7.6 1.8q3 1.8 4.8 6.8a49.5 49.5 0 0 1 2.4 13.4q.8 8.4.8 21.8V78q0 13.6-.8 22.8a63.3 63.3 0 0 1-2.4 14.8q-1.6 5.4-4.6 7.8a12.9 12.9 0 0 1-7.8 2.2 14.6 14.6 0 0 1-7.6-1.8q-3-1.8-4.8-6.6a56.6 56.6 0 0 1-2.6-13.4q-.6-8.6-.6-22zm66.5 6.8v23.6h50.4v29.4H269v-29.4h13.6V89.8H269V0h-29.8zM242.6 36v53.8h-28L242.2 36z"/></svg>