<svg xmlns="http://www.w3.org/2000/svg" viewBox="0 0 285.62 51.63"><path fill="#ffde00" d="M13.37 4.69h149.85l-14.08 19.52H0L13.37 4.69zM13.37 46.06h149.85l-14.08-19.52H0l13.37 19.52z"/><path fill="#fff" d="M176.09 15.6l4.57 6.47h-2.94l-3.24-4.8-1.36 1.35v3.45h-2.31V11.39h2.31v4.44l4.2-4.44h2.95l-4.18 4.21z"/><path fill="#fff" d="M185.56 22.03c-.63 1.71-1 2.79-3 2.79h-1.42v-1.77h1a1 1 0 0 0 1.08-1 1.18 1.18 0 0 0-.06-.3l-2.8-7.4h2.41l1.73 5.22 1.71-5.27h2.21zM191.35 22.06h-2.13v-7.74h2.13zm0-8.88h-2.13v-1.8h2.13zM199.97 14.33l-2.63 7.74h-2.38l-2.66-7.74h2.25l1.65 5.28 1.65-5.28h2.12zM210.91 14.57c-.09-1-.78-1.59-2-1.59-1.08 0-1.73.45-1.73 1.22 0 .93 1.14 1 3.27 1.61 1.9.54 3.12 1.28 3.12 3.06 0 2.52-2.22 3.45-4.39 3.45-2.9 0-4.61-1.4-4.64-3.81h2.33c0 1.44 1 2 2.42 2 1.23 0 2-.54 2-1.42s-.72-1-2.93-1.62c-1.74-.49-3.4-.93-3.4-3.1 0-1.93 1.62-3.2 4.11-3.2 2.25 0 4.07 1 4.11 3.41zM218.41 22.26a3.74 3.74 0 0 1-3.95-4 3.83 3.83 0 0 1 4-4.15c2.07 0 3.45 1.13 3.63 2.92H220a1.47 1.47 0 0 0-1.53-1.34c-1.15 0-1.85.93-1.85 2.52s.66 2.43 1.8 2.43a1.6 1.6 0 0 0 1.65-1.56h2.06a3.46 3.46 0 0 1-3.71 3.18M225.46 15.36a2.84 2.84 0 0 1 2.45-1.23c1.89 0 2.71 1.07 2.71 2.86v5.07h-2.13V17.5c0-.95-.22-1.64-1.37-1.64-1.41 0-1.66 1.11-1.66 2.25v3.95h-2.1V11.38h2.1zM234.15 18.19c0 1.59.69 2.51 1.88 2.51s1.86-.93 1.86-2.52-.71-2.46-1.89-2.46-1.85.93-1.85 2.48m5.87 0a4 4 0 1 1-8 0 4 4 0 1 1 8 0M243.31 18.19c0 1.59.69 2.51 1.88 2.51s1.86-.93 1.86-2.52-.71-2.46-1.89-2.46-1.85.93-1.85 2.48m5.87 0a4 4 0 1 1-8 0 4 4 0 1 1 8 0M250.63 11.39h2.13v10.68h-2.13zM174.3 33.72c-1.14 0-1.84.93-1.84 2.48s.69 2.51 1.88 2.51 1.86-.93 1.86-2.52-.71-2.46-1.89-2.46m0 6.59a3.82 3.82 0 0 1-4-4.11 4 4 0 1 1 8 0 3.81 3.81 0 0 1-4 4.11M183.93 30.94h-.71c-.76 0-.95.15-.95.79v.61h1.5v1.44h-1.5v6.3h-2.13v-6.3h-1.26v-1.46h1.26v-.4c0-1.79.72-2.58 2.66-2.58h1.11zM197.12 31.31h-5.69v2.32h5.22v1.85h-5.22v2.62h5.79v1.97h-8.12V29.39h8.02v1.92zM203.77 40.06v-4.49c0-1-.18-1.68-1.32-1.68s-1.68.92-1.68 2v4.16h-2.12v-7.73h2v1.08a3.06 3.06 0 0 1 2.57-1.29 2.5 2.5 0 0 1 2.68 2.78v5.18zM211.06 33.64a1.74 1.74 0 0 0-1.73 1.74h3.44a1.68 1.68 0 0 0-1.67-1.74m.08 6.65a3.78 3.78 0 0 1-4-4.05 3.89 3.89 0 0 1 3.89-4.14c2.34 0 3.83 1.71 3.83 4.43v.21h-5.55c0 1.34.68 2.06 1.82 2.06a1.55 1.55 0 0 0 1.6-1.14h2a3.57 3.57 0 0 1-3.63 2.63M221.13 34.15a3.78 3.78 0 0 0-.83-.09c-1.47 0-2 1-2 2.46v3.54h-2.13v-7.74h2v1.42a2.66 2.66 0 0 1 2.51-1.6 2.84 2.84 0 0 1 .47 0zM223.77 36.01c0 1.36.69 2.23 1.8 2.23s1.79-.87 1.79-2.28-.68-2.21-1.8-2.21-1.79.82-1.79 2.26m5.61 3.24c0 2.58-1.29 3.69-3.81 3.69-2.24 0-3.42-.8-3.63-2.42h2.12c.17.69.63 1 1.56 1 1.43 0 1.7-.77 1.71-2v-.87a2.73 2.73 0 0 1-2.37 1.2c-2 0-3.3-1.48-3.3-3.81s1.35-3.92 3.39-3.92a2.47 2.47 0 0 1 2.31 1.24v-1h2zM235.29 40.03c-.63 1.71-1 2.79-3 2.79h-1.42v-1.77h1a1 1 0 0 0 1.08-1 1.18 1.18 0 0 0-.06-.3l-2.8-7.4h2.29l1.84 5.22 1.71-5.27h2.21zM245.62 34.38h2.09c1 0 1.83-.35 1.83-1.53s-.77-1.55-1.77-1.55h-2.1zm2.28-5c2.31 0 3.92 1.08 3.92 3.44s-1.65 3.41-3.8 3.41h-2.4v3.84h-2.33V29.38zM254.97 36.19c0 1.59.69 2.51 1.88 2.51s1.86-.93 1.86-2.52-.71-2.46-1.89-2.46-1.85.93-1.85 2.48m5.87 0a4 4 0 1 1-8 0 4 4 0 1 1 8 0M262.29 29.39h2.13v10.68h-2.13zM268.29 40.06h-2.13v-7.74h2.13zm0-8.88h-2.13v-1.8h2.13zM273.64 40.26a3.74 3.74 0 0 1-3.95-4 3.83 3.83 0 0 1 4-4.15c2.07 0 3.45 1.13 3.63 2.92h-2.09a1.47 1.47 0 0 0-1.53-1.34c-1.15 0-1.85.93-1.85 2.52s.66 2.43 1.8 2.43a1.6 1.6 0 0 0 1.65-1.56h2.06a3.46 3.46 0 0 1-3.71 3.18M282.77 40.03c-.63 1.71-1 2.79-3 2.79h-1.43v-1.77h1a1 1 0 0 0 1.08-1 1.18 1.18 0 0 0-.06-.3l-2.81-7.4h2.3l1.85 5.22 1.71-5.27h2.21z"/><path fill="#002678" d="M48.82 11.47H38.78l-8.61 12.57V0h-8.6v40.16h8.6V27.48l9.18 12.68h9.75L38.38 25.82l10.44-14.35z"/><path fill="#002678" d="M59.11 19.85c0-1 .92-1.61 2.41-1.61a4.17 4.17 0 0 1 3.84 2.52l7.34-4a12.55 12.55 0 0 0-11.18-6.09c-6 0-11.24 3.16-11.24 9.41 0 9.93 14.11 8.26 14.11 11.42 0 1.15-1 1.78-3.1 1.78a4.71 4.71 0 0 1-4.88-3.38l-7.46 4.24c2.24 4.65 6.6 6.83 12.34 6.83 6.2 0 11.93-2.81 11.93-9.41 0-10.61-14.11-8.43-14.11-11.7M85.18 22.83c.8-2.92 3-4.53 6.25-4.53a5.91 5.91 0 0 1 6.08 4.53zm6.31-12.16c-9.07 0-15.26 6.6-15.26 15.15s6.08 15.15 15.89 15.15c5.45 0 9.7-2 12.51-5.91l-6.88-4a7.49 7.49 0 0 1-5.51 2.18c-3.15 0-5.79-1-6.88-4h20.37a16.64 16.64 0 0 0 .34-3.44c0-8.66-6.2-15.15-14.57-15.15M125.95 32.81c-4 0-6.83-2.7-6.83-7s2.87-7 6.83-7 6.83 2.7 6.83 7-2.87 7-6.83 7m1.72-22.14c-3.84 0-6.66 1.32-8.55 3.5v-2.7h-8.61v40.16h8.61V37.46c1.89 2.18 4.7 3.5 8.55 3.5 7.51 0 13.71-6.6 13.71-15.15s-6.2-15.14-13.71-15.14"/></svg>