<svg xmlns="http://www.w3.org/2000/svg" xmlns:xlink="http://www.w3.org/1999/xlink" viewBox="0 0 521.3 299.7"><defs><linearGradient id="a" x1="243.4" x2="446.1" y1=".8" y2="121" gradientTransform="matrix(1 0 0 -1 0 300)" gradientUnits="userSpaceOnUse"><stop offset="0" stop-color="#edf7ff"/><stop offset="1" stop-color="#d0e4f5"/></linearGradient><linearGradient id="d" x1="32" x2="283.5" y1="98.2" y2="98.2" xlink:href="#a"/><linearGradient id="e" x1="32" x2="462" y1="122.2" y2="122.2" gradientTransform="matrix(1 0 0 -1 0 300)" gradientUnits="userSpaceOnUse"><stop offset="0" stop-color="#edf7ff"/><stop offset="1" stop-color="#fff"/></linearGradient><linearGradient id="f" x1="209.5" x2="299.4" y1="22.7" y2="389.2" gradientTransform="matrix(1 0 0 -1 0 300)" gradientUnits="userSpaceOnUse"><stop offset="0" stop-color="#fff"/><stop offset="1" stop-color="#cfe9ff"/></linearGradient><linearGradient id="b" x1="238.2" x2="240.2" y1="145.9" y2="145.9" gradientTransform="matrix(1 0 0 -1 0 300)" gradientUnits="userSpaceOnUse"><stop offset="0" stop-color="#475269"/><stop offset="1" stop-color="#363e4f"/></linearGradient><linearGradient id="c" x1="134" x2="241.2" y1="180.8" y2="147.9" gradientTransform="matrix(1 0 0 -1 0 300)" gradientUnits="userSpaceOnUse"><stop offset="0" stop-color="#5b6a87"/><stop offset="1" stop-color="#2c3340"/></linearGradient><linearGradient id="g" x1="356.6" x2="358.6" y1="213.3" y2="213.3" xlink:href="#b"/><linearGradient id="h" x1="252.3" x2="359.5" y1="248" y2="215.2" xlink:href="#c"/><linearGradient id="i" x1="312.3" x2="351.4" y1="183" y2="183" xlink:href="#c"/><linearGradient id="j" x1="251.8" x2="292.4" y1="147.9" y2="147.9" xlink:href="#c"/><linearGradient id="k" x1="346.2" x2="235.6" y1="214.6" y2="142.3" xlink:href="#c"/><linearGradient id="l" x1="325.8" x2="262" y1="205.1" y2="116.6" xlink:href="#b"/><linearGradient id="m" x1="482.5" x2="493.2" y1="273.2" y2="211.2" gradientTransform="matrix(1 0 0 -1 0 300)" gradientUnits="userSpaceOnUse"><stop offset="0" stop-color="#d4e2ff"/><stop offset="1" stop-color="#b9caed"/></linearGradient></defs><path fill="url(#a)" d="M462 145.2V196L283.5 299.7v-50.6z"/><path fill="url(#d)" d="M283.5 249v50.7L32 154.5v-50.7z"/><path fill="url(#e)" d="M283.5 249L32 103.9v2.7l251.5 145.3L462 148v-2.7z"/><path fill="url(#f)" d="M462 145.2L283.5 249.1 32 103.8 210.8 0z"/><path fill="#ffd00c" d="M226.6 30l-57.3 33.2-3-1.6 57.3-33.3zM265.3 52.3l-57.6 33.3-2.7-1.7 57.2-33.2zM246.2 74.4L217.6 91l-3-1.6 28.6-16.7z"/><path fill="#56627e" d="M162.8 82.3L154 92c-11-3-24.3-2-33.6 3L107 87.2a78.3 78.3 0 0 1 55.9-5z"/><path fill="#8296be" d="M176.2 87.7c5.7 3.3 9.8 7.4 12 11.5l-18.3 3.2a18 18 0 0 0-7.4-6.8 43.5 43.5 0 0 0-6.2-2.7l8.7-9.8a45.8 45.8 0 0 1 11.2 4.6z"/><path fill="#bfceed" d="M254.3 104h.3l7.7 4.5-.6.2-7.4-4.3h-.2zM262.3 109l.5-.3 9.8 5.8-.5.2zM335.3 92.7l10.6 6.2-50.7 29.4-10.3-6.2-.6-.3-11.7-6.8.6-.3 11.7 6.8.5.3 9.8 5.7 50-28.6-10.2-6h-.2z"/><path fill="#56627e" d="M364.2 109.3h.2l-2.7 15-2.4 4.9-.3.3-4.1 7.3-18 6-1 13v.6l-.4 2-2.7 3-.2.5-6.9 7.3-.2.3-23.7 2.7-.6-.2.3-.3 23.7-2.7 7-7.7.3-.5 2.2-2.4.3-2.2v-.3l1.4-13v-.3l18-6 3.8-6.9.2-.5 2.8-5 2.4-15z"/><path fill="#8296be" d="M359.3 129.2l8.4-1.4.8-15.8h.6l-.8 16-.3.3-9 1.1z"/><path fill="#ffd00c" d="M118.4 96.2c-11 7-10.7 17.7 1 24.5a37.5 37.5 0 0 0 11 4.1l-5.8 10.6a57.9 57.9 0 0 1-18.5-6.8c-19.1-11.2-19.6-28.9-1.1-40z"/><path fill="#c6d6f6" d="M189 100.5c4.4 9.6.3 20.2-12.5 27.8a78 78 0 0 1-49 7.4l5.7-10.6c10.3 1.6 21.8 0 29.7-4.7s10.3-10.9 7.9-16.9z"/><path fill="#ffd00c" d="M387.3 140l.8-.2 9-11.2.6-.2v.2l-8.7 11.2h-.3zM351.9 158.3l-16-1.9v-.5l16.3 1.9z"/><path fill="#bfceed" d="M311.9 79.6l.8.2-49.9 29-.6.2-84.1 49-.6-.3 84.2-49 .6-.3z"/><path fill="#ffd00c" d="M330.4 155.6l2.2 5.2-.3.5-2.5-5.7v-.3h.3l5 .6v.2z"/><path fill="#bfceed" d="M322.2 85.6l.8.2-49.9 29-.5.2-84.2 49-.3-.3 84-49 .5-.3z"/><path fill="#8296be" d="M328.2 154.2h-.3l-27 .9-9 11.1h-.5l-.3-.3 9.3-11.1h.3l27-.8 6.8-12.3 10.3-10.6h.3l13.3-2-.2.6-12.8 1.6-10.4 10.4z"/><path fill="#ffd00c" d="M332.6 161.9l.2-.6 3.3 7.7h-.6z"/><path fill="#c6d6f6" d="M401.2 130.5v.3l-12 9.5h-3l-22.9 1.4-8.7 11.4-1.9 5-.3.2-3 8.2-.2.2-12.8 2.5h-.9l-7.6 1.6-17.7 6.3-.3-.3v-.2l17.7-6 8-1.7h.5l12.8-2.7 3-8 .3-.4 1.6-5 9-11.4h.3l24.2-1.4 1.4-.2h.3l11.7-9.3z"/><path fill="#bfceed" d="M335.3 92.7l-.6.2-49.3 28.9-.5-.3 49.6-28.8-11.8-6.9-.2-.2-10.1-5.7-.3-.3-7.6-4.1-49.9 28.6-.5.3-84 49h-.8l-9.5 6 7.6 4.3.3.3 10 5.7.3.3 12 6.8 9.9-5.7.5-.3 84-49 .5.3-94.9 55.3-31-18 145.5-84.7z"/><path fill="#ffd00c" d="M340 177.4h-.4l-22.3 3.8-.5-.3.2-.2 22.1-3.6-3.5-7.9h.8z"/><path fill="#bfceed" d="M417.9 140.3l-87 50.7-58.3-33.8.6-.3 57.7 33.6 86.4-50.4z"/><path fill="#56627e" d="M320.3 196.7l-7.6 4.4-20.7-12 7.3-4.4z"/><path fill="#c6d6f6" d="M293.3 212.3l-7.6 4.6-53.4-31 7.6-4.4z"/><path fill="#ffd00c" d="M255.4 46.6l-57.2 33.2-3-1.6L252.7 45zM245.9 41.1l-57.2 33.3-3-1.7 57.2-33.2zM236.1 35.4l-57.2 33.3-3-1.7 57.5-33.2z"/><path fill="#bfceed" d="M200.4 170.8l-.3.3h-.2l-11.8-6.8-.5-.3-10-5.7-.4-.3-7.6-4.3-.3-.3.6-.3.3.3 7.3 4.4.6.2 10 5.8.3.2 11.7 6.8z"/><path fill="#bfceed" d="M167.4 163.8l9.8-5.8.3.3-9.8 5.7-.5-.3zM177.8 169.8l9.8-5.8.5.3-9.8 5.7h-.2l-.6-.3z"/><path fill="#8296be" d="M306.7 204.6l-7.4 4.4-33.5-19.3 7.4-4.4z"/><path fill="#ffd00c" d="M280 220.2l-7.6 4.3-31.6-18.2 7.6-4.4zM352.4 158.3l.3-.3 12.8 1.4 5.5-13v-.3l15.3-5.8h1.3l-16 6.3-5.5 13-.3.4z"/><path fill="#2c3340" d="M135.8 120.7l2-1a3.3 3.3 0 0 0-1.4 1.3 6.4 6.4 0 0 1-3 3l-2 1a10.5 10.5 0 0 0 3-3c.3-.5.9-.7 1.4-1.3z"/><path fill="url(#b)" d="M238.3 151l1.9-1v7.3l-2 1z"/><path fill="url(#c)" d="M238.3 151v7.4c-2.8-1.1-56.7-20.2-62.2-21.8a8.1 8.1 0 0 1-2.1-1.1 67.5 67.5 0 0 1-6.6-5 83.6 83.6 0 0 0-7.9-5.7 30.2 30.2 0 0 0-5.2-2.4c-9.8-3.3-18-3.8-19.9-.3-1.9 3.3-5.4 5.5-11.1 2.2-5.5-3.3-8.7-9.2-8.2-10s36.2 1.3 39.5 2.7l83.7 34z"/><path fill="#697a9c" d="M115.4 114.2l1.9-1.1c1.3-.8 36.2 1.3 39.5 3 3.3 1.3 79.6 32.1 83.4 33.8l-2 1.1-83.3-33.8a257 257 0 0 0-39.5-3z"/><path fill="#2c3340" d="M254 53.4l2-1a3.3 3.3 0 0 0-1.4 1.3 6.4 6.4 0 0 1-3 3l-1.9 1a10.4 10.4 0 0 0 3-3 3.3 3.3 0 0 1 1.4-1.3z"/><path fill="url(#g)" d="M356.5 83.7l2.2-1.4v7.4l-2.2 1.3z"/><path fill="url(#h)" d="M356.5 83.7V91a3751 3751 0 0 0-62.1-21.8 8.2 8.2 0 0 1-2.2-1 67.7 67.7 0 0 1-6.5-5 83.4 83.4 0 0 0-8-5.7 30.2 30.2 0 0 0-5-2.5c-9.9-3.3-18-3.8-20-.3-1.9 3.3-5.4 5.5-11.1 2.2-5.5-3.3-8.8-9.3-8.2-10s36.2 1.3 39.5 2.6c3.5 1.7 79.6 32.5 83.6 34.2z"/><path fill="#697a9c" d="M233.6 46.9l2-1.1c1.3-.8 36.2 1.3 39.5 3 3.2 1.3 79.5 32.1 83.3 33.8l-1.9 1L273.1 50c-3.2-1.7-38.1-3.9-39.5-3z"/><path fill="url(#i)" d="M350.8 95.1a3.2 3.2 0 0 0-1.6-1.6l-3-1.7h-.3a9.2 9.2 0 0 1 1.7 1.7 45 45 0 0 1-1.1 20.4c-2 9-7.7 16.6-17 22a36.4 36.4 0 0 1-6.5 3c-4.6 2-8.1 1.7-10.9 0l3 2c2.8 1.6 6 1.9 11 0a47.8 47.8 0 0 0 6.5-3c9.5-5.5 15-13.1 16.9-22a44 44 0 0 0 1.3-20.8z"/><path fill="#2c3340" d="M313.5 144.2l-3-2c-5.7-3.2-7.6-13.6-9.8-15.5l-.3-.3 3 2a.3.3 0 0 1 .3.2c2.2 2.2 4 12.3 9.8 15.6z"/><path fill="url(#j)" d="M290.6 128l-3-1.8c1.3.8 2.2 3.2 1.9 7.9-.5 7.6-4 24.2-17.4 34.3a68.1 68.1 0 0 1-6.6 4.3c-6 3.6-10.6 4.4-13.6 2.5a18.4 18.4 0 0 1 3 2c3 1.5 7.4 1 13.6-2.5a54.3 54.3 0 0 0 6.6-4.4c13.3-10 16.9-26.7 17.4-34.3.3-4.7-.5-7.1-2-8z"/><path fill="#2c3340" d="M252.7 180.7a18.3 18.3 0 0 1-3-2c-3.5-2.1-4.9-7-5.4-10-.9-3.6-.9-8.8-2.8-9.8l3 1.9c2 1 2 6.2 2.8 9.8.5 3 1.9 7.9 5.4 10z"/><path fill="url(#k)" d="M357.4 80.7h-.9a213.6 213.6 0 0 0-25.3 12.2l-1.6 1.1c-11.2 6.6-19.7 14.2-22.4 16.4a78.5 78.5 0 0 1-9.5 7 38.7 38.7 0 0 1-9.6 3.9 109.2 109.2 0 0 0-22.3 9.5 5.7 5.7 0 0 0-1.6 1 238.4 238.4 0 0 0-25.4 17.3 3.2 3.2 0 0 0-1 3v6.5c0 .5 0 .8.2 1a18.4 18.4 0 0 1 3 2c-.3 0-.3-.5-.3-1V154a3.2 3.2 0 0 1 1.1-3 238.6 238.6 0 0 1 25.4-17.2 5.7 5.7 0 0 0 1.6-1c11.2-6.3 19.6-8.5 22.4-9.6a86.9 86.9 0 0 0 9.5-3.8 78.6 78.6 0 0 0 9.5-7.1 176.4 176.4 0 0 1 22.4-16.4c.5-.2 1-.8 1.6-1a213.5 213.5 0 0 1 25.4-12.3h.8z"/><path fill="url(#l)" d="M359.5 82.3c1.1-.3 1.1.3 1.1 1.6v6.6c0 1.6-.5 1.6-3.3 4.3s-2.7 8.7-3.5 14.2c-1 5.2-3 15.3-10.9 23.4a58.6 58.6 0 0 1-11.2 8.7c-5.7 3.3-11.4 5.2-16 4.1-7.7-1.9-9.9-14.1-12-16.6-.9-1-2.8 0-3.3.3a8.7 8.7 0 0 0-3.5 3.5c-2.2 5.2-4.1 19.6-12 30.3A52.3 52.3 0 0 1 269 177a32.4 32.4 0 0 1-11.1 4.4c-8 1-9.8-6.6-11-11-1-4-.7-10.3-3.5-10-2.7.5-3.2.8-3.2-.5v-6.6a3.2 3.2 0 0 1 1-3 238.6 238.6 0 0 1 25.4-17.2 5.7 5.7 0 0 0 1.6-1c11.2-6.3 19.6-8.5 22.4-9.6a86.7 86.7 0 0 0 9.5-3.8 78.6 78.6 0 0 0 9.5-7A176.4 176.4 0 0 1 332 95.3c.6-.3 1-.9 1.6-1.1 11.5-6 24.8-11.7 26-12zm-9.8 33.5c2.5-10.9 2-18.8 1.1-20.4S348.4 92 343 94a50.9 50.9 0 0 0-10.6 5c-5 2.6-11 7-18.6 13.8-3.2 3-5.4 6.8-4.8 14s4 19.5 17.7 14a47.8 47.8 0 0 0 6.5-3 35.7 35.7 0 0 0 16.6-22zm-57.2 20.4c.6-7.6-2-9-5.2-8.1a74.8 74.8 0 0 0-18.5 7.3 89.8 89.8 0 0 0-10.6 7.4c-5.5 4.4-7.1 7.6-8 10.4s-1.3 11.1 1.1 19c2.2 6.6 7.7 8 17.2 2.5a54.2 54.2 0 0 0 6.6-4.4 47.7 47.7 0 0 0 17.4-34z"/><path fill="url(#m)" d="M497.4 44.4l-6.5-3.8v-7.4a12.4 12.4 0 0 0-5.5-9.5c-3-1.6-5.4-.3-5.4 3.3v7.3l-6.5-3.8c-3-1.6-5.5-.3-5.5 3.3a12.4 12.4 0 0 0 5.5 9.5l6.5 3.8v7.4a12.4 12.4 0 0 0 5.4 9.5c3 1.6 5.5.3 5.5-3.3v-7.3l6.5 3.8c3 1.6 5.5.3 5.5-3 0-3.8-2.5-8.2-5.5-9.8z"/><path fill="#fff" d="M21.5 266.1l4.7-2.7c2.1-1.4 2.1-5.2 0-9a11.2 11.2 0 0 0-3.8-4.1c-1.4-.8-2.8-1.1-3.9-.3l-4.6 2.7-4.6-7.9a11.2 11.2 0 0 0-3.8-4c-1.4-.9-2.7-1.1-3.8-.3-2.2 1-2.2 5.2 0 9l4.6 7.9-4.6 2.7c-2.2 1.1-2.2 5.2 0 9a11.2 11.2 0 0 0 3.8 4.1c1.3.8 2.7 1 3.8.3l4.6-2.8 4.6 8a11.2 11.2 0 0 0 3.9 4c1.3.8 2.7 1.1 3.8.3 2.1-1.4 2.1-5.2 0-9z"/><path fill="none" stroke="#fff" stroke-linecap="round" stroke-miterlimit="10" stroke-width="5" d="M23 86.5a9.7 9.7 0 0 1-9.5 9.6 9.5 9.5 0 0 1 0-19 9.5 9.5 0 0 1 9.6 9.4z"/><path fill="none" stroke="#fff" stroke-linecap="round" stroke-miterlimit="10" stroke-width="3" d="M66 38c6.8 0 6.8 6 13.6 6s6.8-6 13.6-6 6.9 6 13.7 6 6.8-6 13.6-6 6.8 6 13.6 6 6.8-6 13.6-6M334 11c6.8 0 6.8 6 13.6 6s6.8-6 13.6-6 6.9 6 13.7 6 6.8-6 13.6-6 6.8 6 13.6 6 6.8-6 13.6-6"/><path fill="none" stroke="#fff" stroke-linecap="round" stroke-miterlimit="10" stroke-width="5" d="M437 277c6.8 0 6.8 6 13.6 6s6.8-6 13.6-6 6.9 6 13.7 6 6.8-6 13.6-6 6.8 6 13.6 6 6.8-6 13.6-6"/></svg>